# xmcd
#
# Track frame offsets:
#	150
#	8857
#	22387
#	32812
#	42790
#	57097
#	66577
#	79450
#	93170
#	103622
#	117955
#	130457
#	151852
#	171305
#	185610
#	208435
#	222495
#	239545
#	251795
#	264125
#	275865
#	286632
#	299087
#	312137
#	324412
#
# Disc length: 4515
#
# Revision: 2
# Processed by: cddbd v1.5.1PL0 Copyright (c) Steve Scherf et al.
# Submitted via: audiograbber 1.83.01
# Normalized: r1:DSETVAR1
#
DISCID=8811a119
DTITLE=Various Artist - Are You Ready For The Country, Cd1
DYEAR=2001
DGENRE=Country
TTITLE0=The Byrds - Time Between
TTITLE1=The Desert Rose Band - Price I Pay
TTITLE2=The Monkees - Good Clean Fun
TTITLE3=Crazy Horse - Dance Dance Dance
TTITLE4=Doug Sahm - Is Anybody Going To San Antone
TTITLE5=Beau Brummels - My Old Kentucky Home
TTITLE6=Johnny Cash - Wanted Man
TTITLE7=Carl Perkins - Champaign Illinois
TTITLE8=The Dillards - Copperfields
TTITLE9=John Sebastian - Stories We Could Tell
TTITLE10=Chris Hillman - (Take Me In Your) Lifeboat
TTITLE11=Gene Clark - Life's Greatest Fool
TTITLE12=Hank Williams Jr. - New South
TTITLE13=Randy Newman - Rednecks
TTITLE14=John Prine - Down By The Side Of The Road
TTITLE15=Emmylou Harris - Two More Bottles Of Wine
TTITLE16=Bob Neuwirth - Honky Red
TTITLE17=Los Lobos - Whiskey Trail
TTITLE18=Jerry Lee Lewis - Rita May
TTITLE19=The Monkees - Oklahoma Backroom Dancer
TTITLE20=Gram Parsons - I Can't Dance
TTITLE21=Texas Tornados - Adios Mexico
TTITLE22=The Dillards - Brother John
TTITLE23=The Byrds - Full Circle
TTITLE24=Waylon Jennings - Are You Ready For The Country
EXTD=
EXTT0=
EXTT1=
EXTT2=
EXTT3=
EXTT4=
EXTT5=
EXTT6=
EXTT7=
EXTT8=
EXTT9=
EXTT10=
EXTT11=
EXTT12=
EXTT13=
EXTT14=
EXTT15=
EXTT16=
EXTT17=
EXTT18=
EXTT19=
EXTT20=
EXTT21=
EXTT22=
EXTT23=
EXTT24=
PLAYORDER=
